<svg width="36" height="47" viewBox="0 0 36 47" fill="none" xmlns="http://www.w3.org/2000/svg">
<path d="M0.741211 0.885374C0.433594 1.61682 0.194336 3.20276 0.078125 5.32873L2.46387 6.48401C2.42969 4.95959 2.48437 3.53088 2.63477 2.23205C2.6416 2.13635 2.65527 2.07483 2.65527 2.07483C2.65527 2.12951 2.6416 2.17737 2.63477 2.23205C2.58691 2.66272 2.48437 4.00256 2.62793 6.42932C3.6123 5.62268 5.03418 4.25549 6.16211 3.09338C4.97266 0.666625 3.49609 0.242796 3.49609 0.242796C3.49609 0.242796 1.38379 -0.611696 0.741211 0.885374Z" fill="url(#paint0_linear)"/>
<path d="M9.0127 19.2125C8.90332 19.3356 8.78711 19.4518 8.6709 19.568C8.73242 19.5133 8.79394 19.4449 8.84863 19.3834C8.91016 19.3356 8.96484 19.274 9.0127 19.2125Z" fill="#BE242F"/>
<path opacity="0.35" d="M9.0127 19.2125C8.90332 19.3356 8.78711 19.4518 8.6709 19.568C8.73242 19.5133 8.79394 19.4449 8.84863 19.3834C8.91016 19.3356 8.96484 19.274 9.0127 19.2125Z" fill="#BE242F"/>
<path d="M8.14478 17.3123C8.13794 17.3191 8.13794 17.3191 8.14478 17.3123C8.16528 17.2986 8.17895 17.2781 8.19946 17.2644C8.27466 17.1892 8.34985 17.114 8.41138 17.0388C8.32935 17.1277 8.23364 17.2166 8.14478 17.3123Z" fill="#BE242F"/>
<path opacity="0.35" d="M8.14478 17.3123C8.13794 17.3191 8.13794 17.3191 8.14478 17.3123C8.16528 17.2986 8.17895 17.2781 8.19946 17.2644C8.27466 17.1892 8.34985 17.114 8.41138 17.0388C8.32935 17.1277 8.23364 17.2166 8.14478 17.3123Z" fill="#BE242F"/>
<path d="M3.09253 13.525C2.98315 12.7321 2.88061 11.9528 2.79174 11.1803C2.69604 10.3805 2.62768 9.6012 2.57299 8.82874C2.56616 8.78088 2.56616 8.73303 2.56616 8.69202C2.51147 7.93323 2.47729 7.20178 2.45678 6.47717L0.0710411 5.33557C0.0710411 5.47913 0.0573693 5.62268 0.0505333 5.77991C0.0300255 6.35413 0.00951771 6.95569 0.00268177 7.59827C-0.00415417 8.31604 0.00268177 9.06799 0.0163536 9.85413C0.0300255 10.5787 0.0642052 11.3307 0.105221 12.0963C0.146236 12.7526 0.187252 13.4157 0.24194 14.0924C0.24194 14.1198 0.248776 14.1403 0.248776 14.1676L3.43432 15.7809C3.31811 15.0153 3.2019 14.2701 3.09253 13.525Z" fill="url(#paint1_linear)"/>
<path d="M7.7959 32.3717C7.97363 32.9664 8.15137 33.5817 8.34277 34.2037C8.34961 34.2106 8.34277 34.2242 8.34961 34.2311C8.37695 34.3199 8.39746 34.4088 8.43164 34.4908C8.56152 34.9078 8.68457 35.2838 8.94434 36.1383C9.45703 36.0289 10.0996 36.2613 10.7764 36.5758C10.3457 36.0563 9.75098 35.7076 9.0332 35.6324C10.9814 34.3336 12.2666 32.652 12.0889 30.6559C12.0684 30.4781 12.0479 30.2936 12.0068 30.109C11.9795 30.8746 11.6582 31.4283 10.7285 32.0367L10.7217 32.0436L10.7285 32.0367C11.6104 30.485 11.8564 29.4322 11.7471 28.0719C11.7197 27.7506 11.6787 27.4088 11.624 27.0397C11.3438 29.0699 10.25 30.3756 8.66406 31.1549L7.7002 32.0436C7.73438 32.1461 7.76172 32.2555 7.7959 32.3717Z" fill="url(#paint2_linear)"/>
<path d="M6.55859 29.651C6.35351 28.8922 6.15527 28.1266 5.95019 27.3541C5.75879 26.609 5.56738 25.8639 5.38281 25.1051C5.19824 24.3463 5.02051 23.5807 4.84277 22.8151C4.6582 22.0358 4.49414 21.2565 4.33008 20.4703C4.16602 19.6979 4.00879 18.9117 3.8584 18.1393C3.80371 17.859 3.74902 17.5856 3.70117 17.2985C3.6123 16.8199 3.53027 16.3414 3.44824 15.8561C3.44141 15.8287 3.44141 15.8014 3.43457 15.7809L0.269531 14.1608C0.276367 14.2086 0.283203 14.2633 0.283203 14.3112C0.344727 15.0289 0.40625 15.7604 0.495117 16.4918C0.577148 17.2369 0.672852 17.9821 0.782227 18.734C0.87793 19.3698 0.973633 19.9987 1.08301 20.6344C1.10352 20.7574 1.13086 20.8942 1.15137 21.0172C1.29492 21.8033 1.45215 22.569 1.62305 23.2731C1.81445 24.0797 2.0127 24.8385 2.21777 25.5426C2.35449 26.0074 2.49121 26.4518 2.62793 26.8688C2.74414 27.2242 2.88086 27.5797 3.00391 27.9283C3.30469 28.7487 3.63965 29.5485 4.00195 30.3346L7.20117 31.9547C7.03027 31.3668 6.87305 30.7653 6.70215 30.1637C6.64746 29.9928 6.60644 29.8219 6.55859 29.651Z" fill="url(#paint3_linear)"/>
<path d="M4.04306 30.4371C4.48739 31.3805 4.97274 32.2897 5.51962 33.1578C5.54013 33.1852 5.5538 33.2194 5.57431 33.2467C4.69247 32.8912 3.12021 33.0553 3.13388 33.0553C4.75399 33.6158 6.17587 34.3063 7.07138 35.3453C6.71591 35.735 6.04599 36.0358 5.212 36.275C6.36728 36.3981 7.01669 36.1998 7.24911 36.0973C6.64071 36.6032 6.30575 37.526 6.00497 38.5172C6.68857 37.403 7.36532 36.6647 8.02157 36.3844C8.98544 39.5699 10.1407 43.0289 11.4259 46.652C11.6446 46.3717 11.6651 46.0641 11.5763 45.7496C11.337 45.1002 9.81259 40.7867 8.07626 34.9352C8.02841 34.7711 7.98056 34.6002 7.92587 34.4293C7.9122 34.3815 7.89853 34.3405 7.88485 34.2926C7.70712 33.6774 7.52255 33.0485 7.33798 32.3991C7.29696 32.2487 7.25595 32.1051 7.21493 31.9547L7.2081 31.9479L4.00888 30.3278C4.00888 30.3688 4.02255 30.403 4.04306 30.4371Z" fill="url(#paint4_linear)"/>
<path d="M3.80371 15.8424C3.82422 15.9518 3.84473 16.0475 3.8584 16.15C3.91992 16.4645 3.97461 16.7858 4.04297 17.1139C4.11133 17.4694 4.18652 17.8248 4.25488 18.194C4.28906 18.3785 4.32324 18.5631 4.36426 18.7545C4.48047 19.3219 4.60352 19.903 4.7334 20.5045C4.89062 21.2428 5.06836 22.0016 5.25293 22.7877C5.43066 23.5328 5.61523 24.3121 5.81348 25.0983C6.00488 25.8502 6.20312 26.6227 6.41504 27.4225C6.59961 28.1266 6.80469 28.858 7.00977 29.6031C7.0166 29.6373 7.03027 29.6783 7.03711 29.7125C7.24219 30.444 7.46094 31.2028 7.67969 31.9752C7.67969 31.9957 7.68652 32.0094 7.69336 32.0231L8.65723 31.1344C8.62988 31.1412 8.61621 31.1549 8.58203 31.1686C9.73047 30.0885 10.708 27.9147 10.9336 25.9596C11.0361 25.0572 11.0293 24.1002 10.9062 23.0543C10.8174 22.275 10.6602 21.4547 10.4414 20.5729C10.25 19.8073 10.0176 18.9938 9.73047 18.1393C9.55273 18.5016 9.2998 18.8571 8.99219 19.2057C8.9375 19.2672 8.88281 19.3287 8.82812 19.3903C8.77344 19.4518 8.71191 19.5065 8.65039 19.5748C9.49805 18.2623 9.59375 16.8473 9.34766 15.3844C9.19726 15.8219 8.88965 16.4645 8.39062 17.0387C8.3291 17.1139 8.25391 17.1891 8.17871 17.2643C8.1582 17.278 8.14453 17.2985 8.11719 17.319C8.39746 16.8541 8.60254 16.4098 8.73926 15.9586C8.77344 15.8629 8.79395 15.7672 8.81445 15.6715C8.84863 15.528 8.86914 15.3776 8.89648 15.234C8.90332 15.1383 8.91699 15.0494 8.93066 14.9469C8.94434 14.7213 8.95117 14.4889 8.92383 14.2565C8.91699 14.1813 8.91699 14.1129 8.90332 14.0377C8.88281 13.9283 8.86914 13.8326 8.84863 13.7369C8.77344 13.2926 8.68457 12.903 8.60254 12.5612C8.56152 12.3903 8.52051 12.2399 8.47266 12.1031C8.45215 12.0485 8.44531 11.9938 8.4248 11.9391C8.37012 11.7887 8.3291 11.6451 8.28809 11.5289C8.21973 11.358 8.1582 11.2213 8.11035 11.1256C8.09668 11.1871 8.07617 11.2555 8.04199 11.317C7.84375 11.7819 7.37891 12.4244 6.95508 12.8756L7.84375 12.0621L6.95508 12.8756C6.94824 12.8824 6.94141 12.8824 6.94141 12.8961C6.90039 12.9371 6.85254 12.9781 6.81152 13.0328C6.81152 13.0192 6.82519 13.0123 6.82519 12.9987L3.77637 15.7877C3.80371 15.8082 3.80371 15.8287 3.80371 15.8424Z" fill="url(#paint5_linear)"/>
<path d="M2.62793 6.42932C2.66211 7.09924 2.72363 7.84436 2.79883 8.67835C2.80566 8.7262 2.80566 8.76721 2.8125 8.80823C2.88086 9.53284 2.96973 10.3121 3.08594 11.1666C3.18164 11.8912 3.28418 12.6705 3.4209 13.5045C3.53027 14.2291 3.66016 14.9879 3.80371 15.7877L6.8457 12.9987C7.48144 11.8502 7.61816 11.1324 7.61133 10.2438C7.60449 10.0045 7.59082 9.75159 7.57715 9.49866C7.5293 8.71936 7.43359 7.89221 7.30371 7.09924C7.18066 6.32678 7.02344 5.58167 6.85254 4.94592C6.74316 4.53577 6.62695 4.16663 6.50391 3.85217C6.38769 3.58557 6.27148 3.33948 6.15527 3.10022C5.03418 4.25549 3.6123 5.62268 2.62793 6.42932Z" fill="url(#paint6_linear)"/>
<path d="M8.85547 19.3903C8.80078 19.4518 8.73926 19.5065 8.67773 19.5748C8.73242 19.5133 8.78711 19.4518 8.85547 19.3903Z" fill="#BE242F"/>
<path opacity="0.35" d="M8.85547 19.3903C8.80078 19.4518 8.73926 19.5065 8.67773 19.5748C8.73242 19.5133 8.78711 19.4518 8.85547 19.3903Z" fill="#BE242F"/>
<path d="M8.85547 19.3903C8.80078 19.4518 8.73926 19.5065 8.67773 19.5748C8.73242 19.5133 8.78711 19.4518 8.85547 19.3903Z" fill="url(#paint7_linear)"/>
<path d="M8.1377 17.319C8.1582 17.3053 8.17188 17.2848 8.19922 17.2643C8.17871 17.278 8.16504 17.2985 8.1377 17.319Z" fill="#BE242F"/>
<path opacity="0.35" d="M8.1377 17.319C8.1582 17.3053 8.17188 17.2848 8.19922 17.2643C8.17871 17.278 8.16504 17.2985 8.1377 17.319Z" fill="#BE242F"/>
<path d="M8.1377 17.319C8.1582 17.3053 8.17188 17.2848 8.19922 17.2643C8.17871 17.278 8.16504 17.2985 8.1377 17.319Z" fill="url(#paint8_linear)"/>
<path d="M31.9268 1.487C31.0996 1.8288 29.6436 2.91572 27.8662 4.53583L28.8711 7.35908C30.0469 6.10126 31.2295 5.00068 32.3848 4.07783C32.4668 4.00947 32.5215 3.96845 32.5215 3.96845C32.4805 4.00947 32.4258 4.03681 32.3848 4.07783C32.0088 4.38544 30.8604 5.38349 29.0488 7.44111C30.4844 7.57783 32.7129 7.60517 34.5449 7.56415C35.5156 4.66572 34.6611 3.14814 34.6611 3.14814C34.6611 3.14814 33.6357 0.782903 31.9268 1.487Z" fill="url(#paint9_linear)"/>
<path d="M24.0244 22.8151C23.8398 22.8219 23.6553 22.8287 23.4639 22.8287C23.5527 22.8356 23.6553 22.8287 23.751 22.8219C23.8467 22.8219 23.9424 22.8151 24.0244 22.8151Z" fill="#BE242F"/>
<path opacity="0.35" d="M24.0244 22.8151C23.8398 22.8219 23.6553 22.8287 23.4639 22.8287C23.5527 22.8356 23.6553 22.8287 23.751 22.8219C23.8467 22.8219 23.9424 22.8151 24.0244 22.8151Z" fill="#BE242F"/>
<path d="M24.8303 20.5866C24.8235 20.5866 24.8235 20.5866 24.8303 20.5866C24.8577 20.5934 24.885 20.5866 24.9124 20.5866C25.0354 20.5866 25.1516 20.5866 25.2678 20.5729C25.1311 20.5797 24.9807 20.5797 24.8303 20.5866Z" fill="#BE242F"/>
<path opacity="0.35" d="M24.8303 20.5866C24.8235 20.5866 24.8235 20.5866 24.8303 20.5866C24.8577 20.5934 24.885 20.5866 24.9124 20.5866C25.0354 20.5866 25.1516 20.5866 25.2678 20.5729C25.1311 20.5797 24.9807 20.5797 24.8303 20.5866Z" fill="#BE242F"/>
<path d="M23.7715 13.525C24.3115 12.8004 24.8516 12.0895 25.3916 11.399C25.9521 10.6813 26.5127 9.99768 27.0869 9.32776C27.1211 9.28674 27.1553 9.24573 27.1895 9.21155C27.75 8.56213 28.3037 7.94006 28.8643 7.34534L27.8594 4.52893C27.7432 4.63831 27.6133 4.75452 27.4834 4.87073C27.0117 5.30823 26.5127 5.78674 26.0068 6.2926C25.4326 6.86682 24.8447 7.47522 24.2295 8.1178C23.6689 8.71252 23.0947 9.34143 22.5205 9.99084C22.0283 10.5514 21.543 11.1188 21.0439 11.6998C21.0234 11.7272 21.0098 11.7408 20.9893 11.7682L22.2744 15.5963C22.7734 14.9059 23.2725 14.2086 23.7715 13.525Z" fill="url(#paint10_linear)"/>
<path d="M12.5947 32.4332C12.2598 33.0485 11.918 33.6842 11.583 34.3405C11.583 34.3473 11.5693 34.3541 11.5693 34.3678C11.5215 34.4635 11.4668 34.5455 11.4258 34.6412C11.1934 35.0787 10.9951 35.4752 10.5303 36.3707C11.0293 36.692 11.3643 37.3893 11.6582 38.1754C11.7266 37.4166 11.5215 36.6647 11.0088 36.0289C13.6133 36.5348 15.9785 36.1998 17.4209 34.4498C17.5439 34.2926 17.6738 34.1285 17.79 33.9508C17.1543 34.5455 16.457 34.7369 15.2266 34.484H15.2197H15.2266C17.168 33.9371 18.2002 33.2809 19.1982 32.0983C19.4307 31.818 19.6768 31.5104 19.916 31.1686C18.0772 32.5768 16.1563 32.7682 14.2627 32.1256L12.7793 32.0778C12.7178 32.2008 12.6563 32.3102 12.5947 32.4332Z" fill="url(#paint11_linear)"/>
<path d="M13.7568 29.2545C14.1943 28.4821 14.6387 27.7096 15.0898 26.9166C15.5273 26.1647 15.9717 25.4127 16.4229 24.6539C16.874 23.8951 17.3389 23.1364 17.8037 22.3844C18.2754 21.6119 18.7607 20.8463 19.2529 20.0875C19.7314 19.3356 20.2305 18.5836 20.7227 17.8385C20.9004 17.5651 21.0781 17.3053 21.2695 17.0387C21.5772 16.5807 21.8916 16.1295 22.2129 15.6783C22.2266 15.651 22.2471 15.6305 22.2607 15.6031L20.9961 11.7819C20.9619 11.8229 20.9277 11.8707 20.8867 11.9117C20.3672 12.5406 19.8408 13.1764 19.3281 13.8326C18.8018 14.4957 18.2891 15.1725 17.7764 15.8697C17.3457 16.4576 16.9287 17.0455 16.5049 17.6403C16.4229 17.7565 16.3408 17.8864 16.2588 18.0026C15.7529 18.7545 15.2744 19.486 14.8438 20.1969C14.3584 20.9967 13.9209 21.7692 13.5244 22.4938C13.2715 22.9723 13.0254 23.4371 12.7998 23.8883C12.6152 24.2711 12.4375 24.6608 12.2598 25.0436C11.8496 25.9459 11.4805 26.8551 11.1523 27.7711L12.4443 31.6197C12.7725 31.0113 13.1211 30.403 13.4629 29.774C13.5518 29.61 13.6543 29.4391 13.7568 29.2545Z" fill="url(#paint12_linear)"/>
<path d="M11.0977 27.8942C10.7012 29.0016 10.373 30.1227 10.1201 31.2574C10.1133 31.2916 10.0996 31.3395 10.0928 31.3737C9.66211 30.3824 8.26758 29.2682 8.27442 29.2819C9.12891 31.0182 9.73047 32.6998 9.62109 34.2516C9.02637 34.2858 8.24707 33.9918 7.38574 33.527C8.21973 34.5455 8.89649 34.901 9.16992 35.0035C8.28125 34.9283 7.27637 35.4 6.25098 35.9674C7.68652 35.6119 8.81445 35.5573 9.56641 35.8512C7.80957 39.1803 5.99805 42.8785 4.14551 46.816C4.54199 46.7614 4.80859 46.5358 4.98633 46.2076C5.31445 45.4967 7.50879 40.8141 10.7627 34.7164C10.8516 34.5455 10.9541 34.3746 11.043 34.1901C11.0703 34.1354 11.0908 34.0944 11.1182 34.0465C11.46 33.4108 11.8154 32.7614 12.1846 32.0914C12.2734 31.9342 12.3486 31.7907 12.4375 31.6403V31.6334L11.1455 27.7848C11.1318 27.8121 11.1182 27.8531 11.0977 27.8942Z" fill="url(#paint13_linear)"/>
<path d="M22.5068 15.9518C22.4385 16.0543 22.377 16.1432 22.3086 16.2457C22.1035 16.5465 21.8984 16.8541 21.6934 17.1686C21.4678 17.5035 21.2422 17.8522 21.0029 18.2076C20.8867 18.3854 20.7637 18.5631 20.6475 18.7477C20.292 19.2946 19.9297 19.8688 19.5537 20.4498C19.0957 21.1676 18.6309 21.9196 18.1592 22.6989C17.708 23.4371 17.2432 24.2164 16.7715 25.0094C16.3271 25.7682 15.8691 26.5475 15.4043 27.361C14.9941 28.0787 14.5771 28.8239 14.1533 29.5895C14.1328 29.6237 14.1123 29.6647 14.0918 29.6989C13.6748 30.4508 13.2441 31.2369 12.8135 32.0299C12.7998 32.0436 12.793 32.0641 12.7861 32.0846L14.2695 32.1324C14.2422 32.1188 14.2148 32.1188 14.1807 32.0983C15.9648 32.1393 18.4805 31.1686 20.21 29.774C21.0098 29.1315 21.7617 28.3522 22.4932 27.4088C23.04 26.7115 23.5664 25.9254 24.0928 25.0367C24.5508 24.2711 25.0088 23.4303 25.4531 22.5143C25.0225 22.6647 24.5371 22.7535 24.0107 22.7877C23.915 22.7946 23.8262 22.7946 23.7305 22.8014C23.6348 22.8082 23.5459 22.8014 23.4434 22.8082C25.166 22.4186 26.3691 21.3658 27.333 19.985C26.8613 20.2106 26.1094 20.4908 25.248 20.5592C25.1318 20.5729 25.0156 20.5729 24.8926 20.5729C24.8652 20.566 24.8379 20.5729 24.8037 20.566C25.3984 20.4156 25.918 20.2174 26.3828 19.9645C26.4853 19.9166 26.5742 19.8551 26.6699 19.7936C26.8135 19.7047 26.9502 19.6022 27.0801 19.4996C27.1621 19.4313 27.251 19.3698 27.333 19.2946C27.5244 19.1305 27.709 18.9391 27.8799 18.734C27.9346 18.6656 27.9893 18.611 28.0371 18.5426C28.1055 18.4401 28.1738 18.3512 28.2353 18.2555C28.5293 17.8385 28.7686 17.4557 28.9668 17.1139C29.0693 16.943 29.1514 16.7858 29.2334 16.6422C29.2607 16.5807 29.2949 16.5328 29.3223 16.4713C29.4043 16.3073 29.4795 16.1637 29.5342 16.027C29.6162 15.8356 29.6777 15.6783 29.7119 15.5621C29.6504 15.5963 29.582 15.6373 29.5 15.6578C28.9668 15.8766 28.085 16.027 27.3877 16.0543L28.7549 16.109L27.3877 16.0543C27.3809 16.0543 27.3672 16.0543 27.3603 16.0612C27.2988 16.0612 27.2236 16.0612 27.1484 16.068C27.1621 16.0612 27.1758 16.0612 27.1895 16.0543L22.5273 15.8766C22.5342 15.9313 22.5205 15.9449 22.5068 15.9518Z" fill="url(#paint14_linear)"/>
<path d="M29.042 7.44104C28.543 8.00842 27.9893 8.65784 27.3945 9.38928C27.3603 9.4303 27.3262 9.46448 27.3057 9.50549C26.7861 10.1412 26.2393 10.8385 25.6514 11.6178C25.1455 12.2877 24.6123 12.9918 24.0586 13.778C23.5732 14.4479 23.0742 15.1656 22.5479 15.9176L27.21 16.0953C28.6318 15.6715 29.3154 15.2067 30.0127 14.4889C30.1973 14.2906 30.3887 14.0787 30.5801 13.86C31.1611 13.1969 31.7422 12.4518 32.2686 11.7067C32.7812 10.9821 33.2461 10.2643 33.6152 9.61487C33.8545 9.19788 34.0459 8.80823 34.2031 8.45959C34.333 8.15198 34.4355 7.86487 34.5381 7.58459C32.7061 7.6051 30.4775 7.57776 29.042 7.44104Z" fill="url(#paint15_linear)"/>
<path d="M23.751 22.8288C23.6553 22.8356 23.5664 22.8288 23.4639 22.8356C23.5596 22.8288 23.6553 22.8219 23.751 22.8288Z" fill="#BE242F"/>
<path opacity="0.35" d="M23.751 22.8288C23.6553 22.8356 23.5664 22.8288 23.4639 22.8356C23.5596 22.8288 23.6553 22.8219 23.751 22.8288Z" fill="#BE242F"/>
<path d="M23.751 22.8288C23.6553 22.8356 23.5664 22.8288 23.4639 22.8356C23.5596 22.8288 23.6553 22.8219 23.751 22.8288Z" fill="url(#paint16_linear)"/>
<path d="M24.8242 20.5865C24.8516 20.5934 24.8789 20.5865 24.9131 20.5934C24.8857 20.5865 24.8584 20.5865 24.8242 20.5865Z" fill="#BE242F"/>
<path opacity="0.35" d="M24.8242 20.5865C24.8516 20.5934 24.8789 20.5865 24.9131 20.5934C24.8857 20.5865 24.8584 20.5865 24.8242 20.5865Z" fill="#BE242F"/>
<path d="M24.8242 20.5865C24.8516 20.5934 24.8789 20.5865 24.9131 20.5934C24.8857 20.5865 24.8584 20.5865 24.8242 20.5865Z" fill="url(#paint17_linear)"/>
<defs>
<linearGradient id="paint0_linear" x1="1.16293" y1="4.85022" x2="6.99542" y2="-2.56647" gradientUnits="userSpaceOnUse">
<stop stop-color="#E19634"/>
<stop offset="0.3123" stop-color="#E19734"/>
<stop offset="0.8383" stop-color="#D97831"/>
</linearGradient>
<linearGradient id="paint1_linear" x1="9.24626" y1="49.5159" x2="0.687279" y2="6.61031" gradientUnits="userSpaceOnUse">
<stop offset="0.3233" stop-color="#9E2465"/>
<stop offset="0.6302" stop-color="#C82238"/>
<stop offset="0.7514" stop-color="#CC2737"/>
<stop offset="1" stop-color="#D97831"/>
</linearGradient>
<linearGradient id="paint2_linear" x1="12.5252" y1="43.4765" x2="7.42493" y2="17.9089" gradientUnits="userSpaceOnUse">
<stop stop-color="#2C2A61"/>
<stop offset="0.0955" stop-color="#67328C"/>
<stop offset="0.7882" stop-color="#9F2465"/>
<stop offset="0.9487" stop-color="#CC2634"/>
</linearGradient>
<linearGradient id="paint3_linear" x1="8.36951" y1="47.1852" x2="-0.189492" y2="4.27955" gradientUnits="userSpaceOnUse">
<stop offset="0.3233" stop-color="#9E2465"/>
<stop offset="0.6302" stop-color="#C82238"/>
<stop offset="0.7514" stop-color="#CC2737"/>
<stop offset="1" stop-color="#D97831"/>
</linearGradient>
<linearGradient id="paint4_linear" x1="8.33318" y1="43.9387" x2="3.83519" y2="21.3906" gradientUnits="userSpaceOnUse">
<stop stop-color="#2C2A61"/>
<stop offset="0.0955" stop-color="#67328C"/>
<stop offset="0.7882" stop-color="#9F2465"/>
<stop offset="0.9487" stop-color="#CC2634"/>
</linearGradient>
<linearGradient id="paint5_linear" x1="12.8097" y1="46.2995" x2="4.25068" y2="3.3938" gradientUnits="userSpaceOnUse">
<stop offset="0.3233" stop-color="#9E2465"/>
<stop offset="0.6302" stop-color="#C82238"/>
<stop offset="0.7514" stop-color="#CC2737"/>
<stop offset="1" stop-color="#D97831"/>
</linearGradient>
<linearGradient id="paint6_linear" x1="13.1254" y1="49.0039" x2="4.5664" y2="6.09827" gradientUnits="userSpaceOnUse">
<stop offset="0.3233" stop-color="#9E2465"/>
<stop offset="0.6302" stop-color="#C82238"/>
<stop offset="0.7514" stop-color="#CC2737"/>
<stop offset="1" stop-color="#D97831"/>
</linearGradient>
<linearGradient id="paint7_linear" x1="14.1396" y1="46.0342" x2="5.58064" y2="3.12849" gradientUnits="userSpaceOnUse">
<stop offset="0.3233" stop-color="#9E2465"/>
<stop offset="0.6302" stop-color="#C82238"/>
<stop offset="0.7514" stop-color="#CC2737"/>
<stop offset="1" stop-color="#D97831"/>
</linearGradient>
<linearGradient id="paint8_linear" x1="13.9834" y1="46.0653" x2="5.42444" y2="3.15966" gradientUnits="userSpaceOnUse">
<stop offset="0.3233" stop-color="#9E2465"/>
<stop offset="0.6302" stop-color="#C82238"/>
<stop offset="0.7514" stop-color="#CC2737"/>
<stop offset="1" stop-color="#D97831"/>
</linearGradient>
<linearGradient id="paint9_linear" x1="29.3214" y1="5.27449" x2="39.9107" y2="3.93411" gradientUnits="userSpaceOnUse">
<stop stop-color="#E19634"/>
<stop offset="0.3123" stop-color="#E19734"/>
<stop offset="0.8383" stop-color="#D97831"/>
</linearGradient>
<linearGradient id="paint10_linear" x1="0.350832" y1="47.6705" x2="27.5403" y2="6.31438" gradientUnits="userSpaceOnUse">
<stop offset="0.3233" stop-color="#9E2465"/>
<stop offset="0.6302" stop-color="#C82238"/>
<stop offset="0.7514" stop-color="#CC2737"/>
<stop offset="1" stop-color="#D97831"/>
</linearGradient>
<linearGradient id="paint11_linear" x1="7.78918" y1="45.4108" x2="23.9915" y2="20.7665" gradientUnits="userSpaceOnUse">
<stop stop-color="#2C2A61"/>
<stop offset="0.0955" stop-color="#67328C"/>
<stop offset="0.7882" stop-color="#9F2465"/>
<stop offset="0.9487" stop-color="#CC2634"/>
</linearGradient>
<linearGradient id="paint12_linear" x1="1.49592" y1="45.0966" x2="28.6855" y2="3.74045" gradientUnits="userSpaceOnUse">
<stop offset="0.3233" stop-color="#9E2465"/>
<stop offset="0.6302" stop-color="#C82238"/>
<stop offset="0.7514" stop-color="#CC2737"/>
<stop offset="1" stop-color="#D97831"/>
</linearGradient>
<linearGradient id="paint13_linear" x1="4.04553" y1="42.4529" x2="18.3344" y2="20.7191" gradientUnits="userSpaceOnUse">
<stop stop-color="#2C2A61"/>
<stop offset="0.0955" stop-color="#67328C"/>
<stop offset="0.7882" stop-color="#9F2465"/>
<stop offset="0.9487" stop-color="#CC2634"/>
</linearGradient>
<linearGradient id="paint14_linear" x1="5.77575" y1="47.9104" x2="32.9653" y2="6.55423" gradientUnits="userSpaceOnUse">
<stop offset="0.3233" stop-color="#9E2465"/>
<stop offset="0.6302" stop-color="#C82238"/>
<stop offset="0.7514" stop-color="#CC2737"/>
<stop offset="1" stop-color="#D97831"/>
</linearGradient>
<linearGradient id="paint15_linear" x1="3.88169" y1="50.3394" x2="31.0713" y2="8.98326" gradientUnits="userSpaceOnUse">
<stop offset="0.3233" stop-color="#9E2465"/>
<stop offset="0.6302" stop-color="#C82238"/>
<stop offset="0.7514" stop-color="#CC2737"/>
<stop offset="1" stop-color="#D97831"/>
</linearGradient>
<linearGradient id="paint16_linear" x1="7.05749" y1="48.7555" x2="34.2504" y2="7.3977" gradientUnits="userSpaceOnUse">
<stop offset="0.3233" stop-color="#9E2465"/>
<stop offset="0.6302" stop-color="#C82238"/>
<stop offset="0.7514" stop-color="#CC2737"/>
<stop offset="1" stop-color="#D97831"/>
</linearGradient>
<linearGradient id="paint17_linear" x1="6.90712" y1="48.6542" x2="34.0967" y2="7.29804" gradientUnits="userSpaceOnUse">
<stop offset="0.3233" stop-color="#9E2465"/>
<stop offset="0.6302" stop-color="#C82238"/>
<stop offset="0.7514" stop-color="#CC2737"/>
<stop offset="1" stop-color="#D97831"/>
</linearGradient>
</defs>
</svg>
