<svg width="48" height="48" viewBox="0 0 48 48" fill="none" xmlns="http://www.w3.org/2000/svg">
<path fill-rule="evenodd" clip-rule="evenodd" d="M42.25 4.5C40.7312 4.5 39.5 5.73122 39.5 7.25C39.5 8.76878 40.7312 10 42.25 10C43.7688 10 45 8.76878 45 7.25C45 5.73122 43.7688 4.5 42.25 4.5ZM36.5 7.25C36.5 4.07436 39.0744 1.5 42.25 1.5C45.4256 1.5 48 4.07436 48 7.25C48 10.4256 45.4256 13 42.25 13C39.0744 13 36.5 10.4256 36.5 7.25Z" fill="#1B344B"/>
<path fill-rule="evenodd" clip-rule="evenodd" d="M42.25 38.5C40.7312 38.5 39.5 39.7312 39.5 41.25C39.5 42.7688 40.7312 44 42.25 44C43.7688 44 45 42.7688 45 41.25C45 39.7312 43.7688 38.5 42.25 38.5ZM36.5 41.25C36.5 38.0744 39.0744 35.5 42.25 35.5C45.4256 35.5 48 38.0744 48 41.25C48 44.4256 45.4256 47 42.25 47C39.0744 47 36.5 44.4256 36.5 41.25Z" fill="#1B344B"/>
<path fill-rule="evenodd" clip-rule="evenodd" d="M6.25 38.1396C4.73122 38.1396 3.5 39.3709 3.5 40.8896C3.5 42.4084 4.73122 43.6396 6.25 43.6396C7.76878 43.6396 9 42.4084 9 40.8896C9 39.3709 7.76878 38.1396 6.25 38.1396ZM0.5 40.8896C0.5 37.714 3.07436 35.1396 6.25 35.1396C9.42564 35.1396 12 37.714 12 40.8896C12 44.0653 9.42564 46.6396 6.25 46.6396C3.07436 46.6396 0.5 44.0653 0.5 40.8896Z" fill="#1B344B"/>
<path fill-rule="evenodd" clip-rule="evenodd" d="M41.84 16.0596C42.6684 16.0596 43.34 16.7311 43.34 17.5596V25.1382L44.6193 23.8589C45.2051 23.2731 46.1549 23.2731 46.7407 23.8589C47.3264 24.4447 47.3264 25.3944 46.7407 25.9802L42.9007 29.8202C42.6194 30.1015 42.2378 30.2596 41.84 30.2596C41.4422 30.2596 41.0606 30.1015 40.7793 29.8202L36.9393 25.9802C36.3536 25.3944 36.3536 24.4447 36.9393 23.8589C37.5251 23.2731 38.4749 23.2731 39.0607 23.8589L40.34 25.1382V17.5596C40.34 16.7311 41.0116 16.0596 41.84 16.0596Z" fill="#1B344B"/>
<path fill-rule="evenodd" clip-rule="evenodd" d="M34.2598 40.84C34.2598 41.6684 33.5882 42.34 32.7598 42.34L22.1811 42.34L23.4604 43.6193C24.0462 44.2051 24.0462 45.1549 23.4604 45.7407C22.8746 46.3264 21.9249 46.3264 21.3391 45.7407L17.4991 41.9007C17.2178 41.6194 17.0598 41.2378 17.0598 40.84C17.0598 40.4422 17.2178 40.0606 17.4991 39.7793L21.3391 35.9393C21.9249 35.3536 22.8746 35.3536 23.4604 35.9393C24.0462 36.5251 24.0462 37.4749 23.4604 38.0607L22.1811 39.34L32.7598 39.34C33.5882 39.34 34.2598 40.0116 34.2598 40.84Z" fill="#1B344B"/>
<path fill-rule="evenodd" clip-rule="evenodd" d="M35.5606 12.3487C36.1464 12.9344 36.1464 13.8842 35.5606 14.47L19.7765 30.255L21.5859 30.255C22.4143 30.255 23.0859 30.9265 23.0859 31.755C23.0859 32.5834 22.4143 33.255 21.5859 33.255L16.1553 33.255C15.7575 33.255 15.376 33.0969 15.0947 32.8156C14.8134 32.5343 14.6553 32.1528 14.6553 31.755L14.6553 26.3244C14.6553 25.496 15.3269 24.8244 16.1553 24.8244C16.9838 24.8244 17.6553 25.496 17.6553 26.3244L17.6553 28.1335L33.4393 12.3487C34.025 11.7629 34.9748 11.7629 35.5606 12.3487Z" fill="#1B344B"/>
<path d="M1.96 3C1.40771 3 0.96 3.44772 0.96 4L0.96 10.875C0.96 11.565 0.765 11.76 0.18 11.76V11.76C0.0805888 11.76 0 11.8406 0 11.94L0 13.0343C0 13.4984 0.360902 13.89 0.825 13.89V13.89C3.435 13.89 3.87 12.66 3.87 10.305V4C3.87 3.44772 3.42229 3 2.87 3H1.96ZM2.885 2.025C3.43729 2.025 3.885 1.57728 3.885 1.025V0.999999C3.885 0.447715 3.43728 0 2.885 0L1.96 0C1.40771 0 0.96 0.447715 0.96 1V1.025C0.96 1.57729 1.40772 2.025 1.96 2.025H2.885Z" fill="#1B344B"/>
<path d="M12.7607 5.7C12.7607 3.81 11.7107 2.82 9.13066 2.805C7.09924 2.79408 6.1334 3.47499 5.71784 4.35559C5.4688 4.88333 5.95482 5.4 6.53837 5.4H7.29197C7.78805 5.4 8.11182 4.89391 8.55938 4.67991C8.68267 4.62097 8.84362 4.59 9.05566 4.59C9.76066 4.59 9.94066 4.95 9.94066 5.46V5.46C9.94066 5.70024 9.74591 5.895 9.50566 5.895H8.98066C6.58066 5.895 5.09566 6.69 5.09566 8.55C5.09566 9.945 6.05566 11.055 7.81066 11.055C8.70487 11.055 9.25231 10.841 9.6289 10.5476C9.79018 10.422 10.0696 10.5288 10.1142 10.7283V10.7283C10.1348 10.8205 10.2136 10.86 10.3081 10.86H11.6702C12.2881 10.86 12.7998 10.2997 12.7801 9.68212C12.7682 9.30608 12.7607 8.89673 12.7607 8.535V5.7ZM9.94066 7.605C9.94066 8.46 9.80566 9.135 8.81566 9.135C8.23066 9.135 7.96066 8.76 7.96066 8.31C7.96066 7.725 8.29066 7.365 9.29566 7.365H9.70066C9.83321 7.365 9.94066 7.47245 9.94066 7.605V7.605Z" fill="#1B344B"/>
<path d="M14.8108 3C14.1316 3 13.65 3.66256 13.8596 4.30859L15.7608 10.1686C15.8945 10.5808 16.2786 10.86 16.712 10.86H18.5171C18.9486 10.86 19.3315 10.5832 19.4667 10.1735L21.4014 4.31351C21.615 3.66651 21.1332 3 20.4518 3L19.7366 3C19.2705 3 18.8663 3.32193 18.7586 3.77543C18.3756 5.38891 17.9425 7.10986 17.7592 8.38583C17.7568 8.40274 17.7424 8.415 17.7253 8.415V8.415C17.708 8.415 17.6935 8.40279 17.6913 8.38567C17.5572 7.34864 17.1691 5.48528 16.7671 3.76529C16.6621 3.31579 16.26 3 15.7984 3H14.8108Z" fill="#1B344B"/>
<path d="M29.6796 5.7C29.6796 3.81 28.6296 2.82 26.0496 2.805C24.0182 2.79408 23.0523 3.47499 22.6368 4.35559C22.3877 4.88333 22.8738 5.4 23.4573 5.4L24.2109 5.4C24.707 5.4 25.0308 4.89391 25.4783 4.67991C25.6016 4.62097 25.7626 4.59 25.9746 4.59C26.6796 4.59 26.8596 4.95 26.8596 5.46V5.46C26.8596 5.70024 26.6649 5.895 26.4246 5.895H25.8996C23.4996 5.895 22.0146 6.69 22.0146 8.55C22.0146 9.945 22.9746 11.055 24.7296 11.055C25.6238 11.055 26.1713 10.841 26.5478 10.5476C26.7091 10.422 26.9885 10.5288 27.0331 10.7283V10.7283C27.0537 10.8205 27.1325 10.86 27.227 10.86H28.5892C29.2071 10.86 29.7187 10.2997 29.6991 9.68212C29.6871 9.30608 29.6796 8.89673 29.6796 8.535V5.7ZM26.8596 7.605C26.8596 8.46 26.7246 9.135 25.7346 9.135C25.1496 9.135 24.8796 8.76 24.8796 8.31C24.8796 7.725 25.2096 7.365 26.2146 7.365H26.6196C26.7522 7.365 26.8596 7.47245 26.8596 7.605V7.605Z" fill="#1B344B"/>
</svg>
